<?xml version="1.0" encoding="UTF-8"?>
<svg version="1.1" xmlns="http://www.w3.org/2000/svg" width="116" height="116">
<path d="M0 0 C4.87028122 0.14784782 8.22383769 2.18681629 12.35546875 4.6171875 C15.94838047 6.72654614 19.61653752 8.64224891 23.3125 10.5625 C31.58755326 14.90063687 39.70699841 19.50395902 47.80761719 24.15844727 C48.74250977 24.69268311 49.67740234 25.22691895 50.640625 25.77734375 C51.46981445 26.25421631 52.29900391 26.73108887 53.15332031 27.22241211 C55.56956132 28.56262402 55.56956132 28.56262402 58.28417969 29.56469727 C60.5625 30.5 60.5625 30.5 61.9375 32.1875 C62.85098169 35.56738225 62.36132263 38.12036578 61.5625 41.5 C59.18941424 44.46441205 56.03209075 46.17882947 52.8125 48.125 C51.95531372 48.64549927 51.95531372 48.64549927 51.08081055 49.17651367 C49.24442078 50.2894847 47.40407628 51.39563471 45.5625 52.5 C44.97355957 52.85368652 44.38461914 53.20737305 43.77783203 53.57177734 C41.35981137 55.02338843 38.94121202 56.47401017 36.52050781 57.92114258 C30.59226124 61.46883238 24.70017933 65.07487068 18.81567383 68.69458008 C16.73582749 69.97070513 14.65012805 71.23665618 12.5625 72.5 C11.60283325 73.09252563 11.60283325 73.09252563 10.6237793 73.69702148 C5.71276484 76.64729754 3.15682071 77.14197123 -2.4375 76.5 C-4.97122826 75.20065217 -6.10546262 74.47608987 -7.02607727 71.76976013 C-7.53567396 68.95838836 -7.57265149 66.29219321 -7.58276367 63.43383789 C-7.58914352 62.20899185 -7.59552338 60.98414581 -7.60209656 59.72218323 C-7.60320938 58.40233932 -7.6043222 57.08249542 -7.60546875 55.72265625 C-7.60868376 54.35029567 -7.61204802 52.97793543 -7.61555481 51.60557556 C-7.62153596 48.73158982 -7.62339572 45.8576341 -7.62280273 42.98364258 C-7.6227011 39.30728105 -7.63635946 35.63111257 -7.65357494 31.95479679 C-7.66471122 29.1211611 -7.66672145 26.28757188 -7.66619301 23.45391655 C-7.6679415 21.44151758 -7.67877044 19.42913312 -7.68974304 17.41676331 C-7.68666641 16.18876511 -7.68358978 14.96076691 -7.68041992 13.69555664 C-7.68184494 12.61730118 -7.68326996 11.53904572 -7.68473816 10.42811584 C-7.21373715 4.84990934 -5.91401247 0.86022 0 0 Z " fill="#F4B30F" transform="translate(27.4375,36.5)"/>
<path d="M0 0 C4.5797629 1.46162646 4.5797629 1.46162646 5.9375 3.9375 C5.53064776 10.17819967 3.93636853 15.50372044 1.6875 21.3125 C1.40003906 22.11816406 1.11257812 22.92382812 0.81640625 23.75390625 C-1.4020587 29.53741532 -1.4020587 29.53741532 -4.62890625 31.4921875 C-7.46664143 32.01145204 -9.32315109 31.82593748 -12.0625 30.9375 C-14.0625 28.9375 -14.0625 28.9375 -14.390625 26.4140625 C-13.9477781 21.72199415 -12.46742 17.70310408 -10.8125 13.3125 C-10.51214844 12.466875 -10.21179687 11.62125 -9.90234375 10.75 C-5.87329353 -0.11986313 -5.87329353 -0.11986313 0 0 Z " fill="#DFA50C" transform="translate(73.0625,6.0625)"/>
<path d="M0 0 C3.5625 0.3125 3.5625 0.3125 5.375 1.3125 C8.63104436 6.79636418 9.01588665 13.81596538 9.4375 20.0625 C9.5096875 20.80371094 9.581875 21.54492188 9.65625 22.30859375 C9.90142648 25.9023648 9.89038833 27.85445209 7.76171875 30.828125 C5.5625 32.3125 5.5625 32.3125 2.5 32.3125 C-0.93881444 31.14183976 -1.59740913 30.37242639 -3.4375 27.3125 C-5.49188775 19.40255788 -6.35247761 10.45310963 -5.4375 2.3125 C-3.4375 0.3125 -3.4375 0.3125 0 0 Z " fill="#E1A60B" transform="translate(35.4375,1.6875)"/>
<path d="M0 0 C2 2 2 2 2.1015625 5.71875 C1.38808264 10.31996706 -0.80716908 12.24723055 -4.43359375 14.96875 C-5.15675781 15.4740625 -5.87992188 15.979375 -6.625 16.5 C-7.67494141 17.304375 -7.67494141 17.304375 -8.74609375 18.125 C-13.21373864 21.37419628 -16.29461966 22.86227411 -22 22 C-24 20 -24 20 -24.8125 16.4375 C-24.75177687 13.1037999 -24.09452009 12.10203494 -21.7890625 9.61328125 C-18.94430242 7.25563762 -16.0417013 5.09630765 -13 3 C-12.31421875 2.50757813 -11.6284375 2.01515625 -10.921875 1.5078125 C-7.01841203 -1.04174665 -4.42672655 -1.44125981 0 0 Z " fill="#DCA40D" transform="translate(105,32)"/>
<path d="M0 0 C1.97265625 0.265625 1.97265625 0.265625 4.97265625 2.265625 C4.38097656 2.21921875 3.78929687 2.1728125 3.1796875 2.125 C-1.15181179 1.92715011 -3.35888319 1.82907933 -7.08984375 4.265625 C-7.72921875 4.925625 -8.36859375 5.585625 -9.02734375 6.265625 C-7.86949971 0.4764048 -5.77140277 0.04315067 0 0 Z " fill="#A87F0C" transform="translate(30.02734375,36.734375)"/>
</svg>
